<svg width="48" height="48" viewBox="0 0 48 48" fill="none" xmlns="http://www.w3.org/2000/svg">
  <path
    d="M24 16C19.58 16 16 19.58 16 24C16 28.42 19.58 32 24 32C28.42 32 32 28.42 32 24C32 19.58 28.42 16 24 16ZM24 28C21.79 28 20 26.21 20 24C20 21.79 21.79 20 24 20C26.21 20 28 21.79 28 24C28 26.21 26.21 28 24 28Z"
    fill="#8065C9"
  />
  <path
    d="M40.26 25.86C40.32 25.25 40.35 24.63 40.35 24C40.35 23.37 40.31 22.75 40.26 22.14L44.24 19.08C44.6 18.8 44.71 18.3 44.5 17.89L41.27 11.61C41.06 11.21 40.59 11.02 40.18 11.16L35.62 12.84C34.5 12 33.28 11.29 31.97 10.75L31.26 5.94C31.2 5.49 30.8 5.15 30.35 5.15H17.65C17.2 5.15 16.8 5.49 16.74 5.94L16.03 10.75C14.72 11.29 13.5 12 12.38 12.84L7.82 11.16C7.41 11.02 6.94 11.21 6.73 11.61L3.5 17.89C3.29 18.3 3.4 18.8 3.76 19.08L7.74 22.14C7.69 22.75 7.65 23.37 7.65 24C7.65 24.63 7.68 25.25 7.74 25.86L3.76 28.92C3.4 29.2 3.29 29.7 3.5 30.11L6.73 36.39C6.94 36.79 7.41 36.98 7.82 36.84L12.38 35.16C13.5 36 14.72 36.71 16.03 37.25L16.74 42.06C16.8 42.51 17.2 42.85 17.65 42.85H30.35C30.8 42.85 31.2 42.51 31.26 42.06L31.97 37.25C33.28 36.71 34.5 36 35.62 35.16L40.18 36.84C40.59 36.98 41.06 36.79 41.27 36.39L44.5 30.11C44.71 29.7 44.6 29.2 44.24 28.92L40.26 25.86ZM24 34.5C17.65 34.5 12.5 29.35 12.5 23C12.5 16.65 17.65 11.5 24 11.5C30.35 11.5 35.5 16.65 35.5 23C35.5 29.35 30.35 34.5 24 34.5Z"
    fill="#BFA7F5"
  />
</svg>
